<svg width="1180" height="610" viewBox="0 0 1180 610" xmlns="http://www.w3.org/2000/svg">
  <defs>
    <linearGradient id="bg" x1="0" y1="0" x2="1" y2="1">
      <stop offset="0%" stop-color="#050b18"/>
      <stop offset="100%" stop-color="#0a122c"/>
    </linearGradient>

    <linearGradient id="accent" x1="0%" y1="0%" x2="100%">
      <stop offset="0%">
        <animate attributeName="stop-color" values="#a855f7;#22d3ee;#10b981;#a855f7" dur="6s" repeatCount="indefinite"/>
      </stop>
      <stop offset="100%" stop-color="#22d3ee"/>
    </linearGradient>

    <filter id="glow" x="-20%" y="-20%" width="140%" height="140%">
      <feGaussianBlur stdDeviation="5" result="blur"/>
      <feMerge>
        <feMergeNode in="blur"/>
        <feMergeNode in="SourceGraphic"/>
      </feMerge>
    </filter>
  </defs>

  <rect width="1180" height="610" fill="url(#bg)" rx="24" stroke="rgba(34,211,238,0.15)" stroke-width="2"/>

  <circle cx="150" cy="150" r="130" fill="#a855f7" opacity="0.15" filter="url(#glow)"/>
  <circle cx="1000" cy="450" r="150" fill="#22d3ee" opacity="0.12" filter="url(#glow)"/>

  <g transform="translate(60, 110)" font-family="monospace" font-weight="900" font-size="16" fill="url(#accent)" filter="url(#glow)">
    <text x="0" y="30"> █████╗ ███╗   ██╗███████╗</text>
    <text x="0" y="60">██╔══██╗████╗  ██║╚══███╔╝</text>
    <text x="0" y="90">███████║██╔██╗ ██║  ███╔╝ </text>
    <text x="0" y="120">██╔══██║██║╚██╗██║ ███╔╝  </text>
    <text x="0" y="150">██║  ██║██║ ╚████║███████╗</text>
    <text x="0" y="180">╚═╝  ╚═╝╚═╝  ╚═══╝╚══════╝</text>
    
    <g transform="translate(10, 250)" font-size="13" font-weight="bold">
      <text x="0" y="0" fill="#94a3b8" opacity="0.8">SYSTEM: ACTIVE</text>
      <text x="0" y="25" fill="#10b981">SECURE // SEC_OPS_OK</text>
    </g>
  </g>

  <g transform="translate(470, 60)">
    <rect x="0" y="0" width="650" height="490" rx="20" fill="rgba(15,23,42,0.6)" stroke="rgba(255,255,255,0.08)" stroke-width="1.5"/>

    <path d="M 0 20 A 20 20 0 0 1 20 0 L 630 0 A 20 20 0 0 1 650 20 L 650 50 L 0 50 Z" fill="#0f172a" fill-opacity="0.9"/>
    <circle cx="25" cy="25" r="6" fill="#ef4444" />
    <circle cx="45" cy="25" r="6" fill="#f59e0b" />
    <circle cx="65" cy="25" r="6" fill="#10b981" />
    <text x="90" y="29" fill="#64748b" font-family="monospace" font-size="13" font-weight="bold">anzarahmed@sec-ops:~</text>

    <text x="40" y="110" font-family="-apple-system, BlinkMacSystemFont, sans-serif" font-weight="900" font-size="34" fill="#ffffff">
      Hi 👋 I'm Anzar Ahmed
    </text>

    <g transform="translate(40, 165)" font-family="monospace" font-size="22" font-weight="900">
      <text fill="#22d3ee">
        <tspan x="0" dy="0">
          &gt; Cyber Security Student
          <animate attributeName="opacity" values="1;1;0;0;1" keys="0;0.35;0.40;0.95;1" dur="8s" repeatCount="indefinite"/>
        </tspan>
      </text>
      <text fill="#a855f7">
        <tspan x="0" dy="0" opacity="0">
          &gt; Threat Hunter &amp; Incident Responder
          <animate attributeName="opacity" values="0;0;1;1;0" keys="0;0.40;0.80;0.95;1" dur="8s" repeatCount="indefinite"/>
        </tspan>
      </text>
    </g>

    <g transform="translate(40, 225)" font-family="-apple-system, sans-serif" font-size="17" font-weight="600" fill="#cbd5e1">
      <text x="0" y="30" fill="#38bdf8">📍  <tspan fill="#e2e8f0">Karachi, Pakistan</tspan></text>
      <text x="0" y="70" fill="#38bdf8">🎓  <tspan fill="#e2e8f0">BS Cyber Security @ MUET</tspan></text>
      <text x="0" y="110" fill="#38bdf8">⚡  <tspan fill="#e2e8f0">SOC Analyst | SIEM &amp; Security Automation</tspan></text>
    </g>

    <line x1="40" y1="380" x2="610" y2="380" stroke="rgba(255,255,255,0.08)" stroke-width="1.5"/>

    <g transform="translate(40, 410)" font-family="-apple-system, sans-serif" font-size="14" font-weight="bold">
      <g transform="translate(0, 0)">
        <rect x="0" y="0" width="100" height="36" rx="18" fill="#1e293b" stroke="rgba(168,85,247,0.4)" stroke-width="1.5"/>
        <text x="50" y="22" fill="#f8fafc" text-anchor="middle">Python</text>
      </g>
      <g transform="translate(115, 0)">
        <rect x="0" y="0" width="100" height="36" rx="18" fill="#1e293b" stroke="rgba(34,211,238,0.4)" stroke-width="1.5"/>
        <text x="50" y="22" fill="#f8fafc" text-anchor="middle">Wazuh</text>
      </g>
      <g transform="translate(230, 0)">
        <rect x="0" y="0" width="100" height="36" rx="18" fill="#1e293b" stroke="rgba(16,185,129,0.4)" stroke-width="1.5"/>
        <text x="50" y="22" fill="#f8fafc" text-anchor="middle">SIEM</text>
      </g>
      <g transform="translate(345, 0)">
        <rect x="0" y="0" width="100" height="36" rx="18" fill="#1e293b" stroke="rgba(245,158,11,0.4)" stroke-width="1.5"/>
        <text x="50" y="22" fill="#f8fafc" text-anchor="middle">Linux</text>
      </g>
    </g>
  </g>
</svg>
